<svg width="40" height="40" viewBox="0 0 40 40" fill="none" xmlns="http://www.w3.org/2000/svg">
<path d="M19.9999 15.8667C19.1824 15.8667 18.3833 16.1091 17.7036 16.5633C17.0238 17.0175 16.4941 17.663 16.1812 18.4183C15.8684 19.1736 15.7865 20.0046 15.946 20.8064C16.1055 21.6082 16.4992 22.3447 17.0772 22.9227C17.6553 23.5008 18.3918 23.8945 19.1935 24.054C19.9953 24.2134 20.8264 24.1316 21.5817 23.8187C22.3369 23.5059 22.9825 22.9761 23.4367 22.2964C23.8908 21.6167 24.1333 20.8175 24.1333 20C24.1333 19.4572 24.0263 18.9198 23.8186 18.4183C23.6109 17.9168 23.3064 17.4611 22.9226 17.0773C22.5388 16.6935 22.0832 16.3891 21.5817 16.1813C21.0802 15.9736 20.5427 15.8667 19.9999 15.8667ZM36.5499 11.7834C36.5411 10.4963 36.3041 9.22099 35.8499 8.01671C35.5154 7.13547 34.9978 6.3352 34.3313 5.66868C33.6648 5.00217 32.8645 4.48457 31.9833 4.15004C30.779 3.69581 29.5037 3.45881 28.2166 3.45004C26.0666 3.33337 25.4333 3.33337 19.9999 3.33337C14.5666 3.33337 13.9333 3.33337 11.7833 3.45004C10.4962 3.45881 9.22087 3.69581 8.01658 4.15004C7.13535 4.48457 6.33507 5.00217 5.66856 5.66868C5.00205 6.3352 4.48445 7.13547 4.14992 8.01671C3.69569 9.22099 3.45869 10.4963 3.44992 11.7834C3.33325 13.9334 3.33325 14.5667 3.33325 20C3.33325 25.4334 3.33325 26.0667 3.44992 28.2167C3.46786 29.5083 3.70454 30.7875 4.14992 32C4.48297 32.8772 5.00013 33.6729 5.66659 34.3334C6.33024 35.0039 7.13223 35.5215 8.01658 35.85C9.22087 36.3043 10.4962 36.5413 11.7833 36.55C13.9333 36.6667 14.5666 36.6667 19.9999 36.6667C25.4333 36.6667 26.0666 36.6667 28.2166 36.55C29.5037 36.5413 30.779 36.3043 31.9833 35.85C32.8676 35.5215 33.6696 35.0039 34.3333 34.3334C34.9997 33.6729 35.5169 32.8772 35.8499 32C36.3037 30.7898 36.5407 29.5091 36.5499 28.2167C36.6666 26.0667 36.6666 25.4334 36.6666 20C36.6666 14.5667 36.6666 13.9334 36.5499 11.7834ZM32.3166 25.1167C32.2631 26.1452 32.0436 27.1583 31.6666 28.1167C31.343 28.9162 30.862 29.6424 30.2522 30.2523C29.6423 30.8621 28.9161 31.3432 28.1166 31.6667C27.1491 32.0227 26.1304 32.2197 25.0999 32.25C23.7833 32.25 23.4333 32.25 19.9999 32.25C16.5666 32.25 16.2166 32.25 14.8999 32.25C13.8695 32.2197 12.8507 32.0227 11.8833 31.6667C11.0568 31.3596 10.3104 30.8696 9.69992 30.2334C9.09603 29.6355 8.62966 28.9132 8.33325 28.1167C7.97585 27.1502 7.78426 26.1303 7.76658 25.1C7.76658 23.7834 7.76658 23.4334 7.76658 20C7.76658 16.5667 7.76658 16.2167 7.76658 14.9C7.78426 13.8698 7.97585 12.8498 8.33325 11.8834C8.64039 11.0569 9.13038 10.3105 9.76659 9.70004C10.3671 9.09941 11.0887 8.63353 11.8833 8.33337C12.8507 7.97738 13.8695 7.78039 14.8999 7.75004C16.2166 7.75004 16.5666 7.75004 19.9999 7.75004C23.4333 7.75004 23.7833 7.75004 25.0999 7.75004C26.1304 7.78039 27.1491 7.97738 28.1166 8.33337C28.9431 8.64051 29.6895 9.1305 30.2999 9.76671C30.9038 10.3646 31.3702 11.0869 31.6666 11.8834C32.0226 12.8509 32.2196 13.8696 32.2499 14.9C32.2499 16.2167 32.2499 16.5667 32.2499 20C32.2499 23.4334 32.3666 23.7834 32.3166 25.1V25.1167ZM29.6499 12.7167C29.4515 12.1783 29.1386 11.6894 28.7329 11.2837C28.3272 10.878 27.8383 10.5651 27.2999 10.3667C26.5607 10.1105 25.7822 9.98636 24.9999 10C23.6999 10 23.3333 10 19.9999 10C16.6666 10 16.2999 10 14.9999 10C14.2137 10.0077 13.435 10.1544 12.6999 10.4334C12.1698 10.6228 11.6861 10.9229 11.2809 11.3137C10.8757 11.7045 10.5584 12.1771 10.3499 12.7C10.1079 13.4423 9.98963 14.2194 9.99992 15C9.99992 16.3 9.99992 16.6667 9.99992 20C9.99992 23.3334 9.99992 23.7 9.99992 25C10.0164 25.7854 10.1629 26.5625 10.4333 27.3C10.6317 27.8384 10.9446 28.3273 11.3503 28.733C11.756 29.1387 12.2449 29.4516 12.7833 29.65C13.4944 29.9116 14.2427 30.0578 14.9999 30.0834C16.2999 30.0834 16.6666 30.0834 19.9999 30.0834C23.3333 30.0834 23.6999 30.0834 24.9999 30.0834C25.7861 30.0757 26.5648 29.929 27.2999 29.65C27.8383 29.4516 28.3272 29.1387 28.7329 28.733C29.1386 28.3273 29.4515 27.8384 29.6499 27.3C29.9289 26.5649 30.0756 25.7863 30.0833 25C30.0833 23.7 30.0833 23.3334 30.0833 20C30.0833 16.6667 30.0833 16.3 30.0833 15C30.0837 14.213 29.9368 13.4329 29.6499 12.7V12.7167ZM19.9999 26.3667C19.1646 26.3667 18.3375 26.2019 17.566 25.8818C16.7945 25.5616 16.0938 25.0924 15.5039 24.5009C14.914 23.9095 14.4466 23.2075 14.1285 22.4352C13.8104 21.6629 13.6477 20.8353 13.6499 20C13.6499 18.7401 14.0237 17.5085 14.7241 16.4612C15.4244 15.4138 16.4197 14.5978 17.584 14.1164C18.7484 13.635 20.0293 13.5099 21.2648 13.757C22.5003 14.004 23.6347 14.612 24.5244 15.5041C25.4141 16.3961 26.0192 17.5321 26.2629 18.7682C26.5067 20.0043 26.3783 21.285 25.8938 22.448C25.4094 23.6111 24.5908 24.6043 23.5416 25.3018C22.4924 25.9994 21.2598 26.37 19.9999 26.3667ZM26.6666 14.8834C26.2982 14.8444 25.9572 14.6704 25.7094 14.395C25.4616 14.1196 25.3245 13.7622 25.3245 13.3917C25.3245 13.0212 25.4616 12.6638 25.7094 12.3884C25.9572 12.113 26.2982 11.939 26.6666 11.9C27.035 11.939 27.376 12.113 27.6238 12.3884C27.8716 12.6638 28.0087 13.0212 28.0087 13.3917C28.0087 13.7622 27.8716 14.1196 27.6238 14.395C27.376 14.6704 27.035 14.8444 26.6666 14.8834Z" fill="#15144E" fill-opacity="0.6"/>
</svg>
