<svg width="40" height="40" viewBox="0 0 40 40" fill="none" xmlns="http://www.w3.org/2000/svg">
<path d="M36.6666 9.66665C35.4138 10.2101 34.089 10.5694 32.7332 10.7333C34.1635 9.87885 35.2354 8.53462 35.7499 6.94998C34.4058 7.75009 32.9345 8.31381 31.3999 8.61665C30.3742 7.50427 29.0082 6.76381 27.5163 6.5114C26.0243 6.25899 24.4908 6.50891 23.1562 7.22197C21.8216 7.93502 20.7615 9.07087 20.142 10.4514C19.5225 11.8319 19.3787 13.379 19.7333 14.85C17.0156 14.7125 14.3573 14.0049 11.931 12.7731C9.5047 11.5413 7.36466 9.81281 5.64992 7.69998C5.04848 8.75026 4.73245 9.93969 4.73325 11.15C4.73112 12.274 5.00695 13.381 5.53618 14.3726C6.06541 15.3642 6.83162 16.2095 7.76658 16.8333C6.67988 16.8037 5.61639 16.5121 4.66659 15.9833V16.0667C4.67473 17.6415 5.22658 19.1651 6.22878 20.3799C7.23098 21.5947 8.62201 22.4261 10.1666 22.7333C9.57201 22.9143 8.95471 23.0097 8.33325 23.0167C7.90307 23.0116 7.47396 22.9726 7.04992 22.9C7.48977 24.2547 8.34096 25.4386 9.48504 26.2869C10.6291 27.1353 12.0092 27.6059 13.4333 27.6333C11.0286 29.5254 8.05972 30.5581 4.99992 30.5667C4.44281 30.5685 3.88614 30.5351 3.33325 30.4667C6.4573 32.4837 10.0979 33.5545 13.8166 33.55C16.3827 33.5766 18.9285 33.0917 21.3051 32.1235C23.6817 31.1552 25.8416 29.7231 27.6586 27.9108C29.4756 26.0985 30.9132 23.9423 31.8875 21.5682C32.8618 19.194 33.3533 16.6495 33.3333 14.0833C33.3333 13.8 33.3333 13.5 33.3333 13.2C34.6411 12.2247 35.769 11.029 36.6666 9.66665Z" fill="#15144E" fill-opacity="0.6"/>
</svg>
