<svg width="40" height="40" viewBox="0 0 40 40" fill="none" xmlns="http://www.w3.org/2000/svg">
<path d="M25.1215 3.33337H14.8958C5.55544 3.33337 3.33325 5.55556 3.33325 14.8785V25.1042C3.33325 34.4444 5.53815 36.6667 14.8784 36.6667H25.1041C34.4444 36.6667 36.6666 34.4618 36.6666 25.1215V14.8959C36.6666 5.55556 34.4617 3.33337 25.1215 3.33337ZM30.2429 27.1181H27.8124C26.8923 27.1181 26.6145 26.3715 24.9652 24.7222C23.5242 23.3334 22.9166 23.1597 22.552 23.1597C22.0486 23.1597 21.9096 23.2986 21.9096 23.9931V26.1806C21.9096 26.7709 21.7187 27.1181 20.1736 27.1181C18.6742 27.0173 17.2202 26.5618 15.9314 25.7891C14.6425 25.0164 13.5557 23.9486 12.7603 22.6736C10.8722 20.3234 9.55843 17.5651 8.92357 14.6181C8.92357 14.2535 9.06242 13.9236 9.7569 13.9236H12.1874C12.8124 13.9236 13.0382 14.2014 13.2812 14.8438C14.4617 18.316 16.4757 21.3368 17.2916 21.3368C17.6041 21.3368 17.7429 21.198 17.7429 20.4167V16.8403C17.6388 15.2084 16.7708 15.0694 16.7708 14.4792C16.7822 14.3235 16.8539 14.1784 16.9705 14.0746C17.0872 13.9709 17.2398 13.9167 17.3958 13.9236H21.2152C21.7361 13.9236 21.9096 14.184 21.9096 14.809V19.6355C21.9096 20.1563 22.1353 20.3298 22.2916 20.3298C22.6041 20.3298 22.8471 20.1563 23.42 19.5834C24.6512 18.082 25.6571 16.4093 26.4062 14.6181C26.4826 14.4025 26.6275 14.2179 26.8188 14.0925C27.01 13.9671 27.2371 13.9078 27.4652 13.9236H29.8958C30.6249 13.9236 30.7812 14.2882 30.6249 14.809C29.7405 16.7895 28.6463 18.6695 27.3611 20.4167C27.1007 20.816 26.9965 21.0243 27.3611 21.4931C27.6041 21.8576 28.4548 22.5694 29.0277 23.2465C29.861 24.0777 30.553 25.0395 31.0763 26.0938C31.2846 26.7709 30.9374 27.1181 30.2429 27.1181Z" fill="#15144E" fill-opacity="0.6"/>
</svg>
