<svg width="70" height="19" viewBox="0 0 70 19" fill="none" xmlns="http://www.w3.org/2000/svg">
<path d="M14.312 13.608C14.312 14.52 14.072 15.304 13.592 15.96C13.128 16.616 12.496 17.12 11.696 17.472C10.896 17.824 10.016 18 9.056 18H0.92V0.959999H9.704C10.504 0.959999 11.192 1.176 11.768 1.608C12.36 2.024 12.808 2.568 13.112 3.24C13.432 3.896 13.592 4.584 13.592 5.304C13.592 6.136 13.376 6.92 12.944 7.656C12.528 8.376 11.928 8.912 11.144 9.264C12.12 9.552 12.888 10.08 13.448 10.848C14.024 11.6 14.312 12.52 14.312 13.608ZM11.552 13.104C11.552 12.624 11.448 12.192 11.24 11.808C11.048 11.408 10.776 11.088 10.424 10.848C10.088 10.592 9.688 10.464 9.224 10.464H3.608V15.672H9.056C9.536 15.672 9.96 15.56 10.328 15.336C10.712 15.096 11.008 14.784 11.216 14.4C11.44 14 11.552 13.568 11.552 13.104ZM3.608 3.288V8.304H8.552C9 8.304 9.4 8.2 9.752 7.992C10.104 7.768 10.384 7.472 10.592 7.104C10.8 6.72 10.904 6.288 10.904 5.808C10.904 5.312 10.808 4.88 10.616 4.512C10.424 4.128 10.16 3.832 9.824 3.624C9.504 3.4 9.128 3.288 8.696 3.288H3.608ZM22.6593 18.24C21.6673 18.24 20.7793 18.072 19.9953 17.736C19.2113 17.384 18.5313 16.904 17.9553 16.296C17.3953 15.688 16.9633 15 16.6593 14.232C16.3553 13.448 16.2033 12.616 16.2033 11.736C16.2033 10.856 16.3553 10.024 16.6593 9.24C16.9633 8.456 17.3953 7.768 17.9553 7.176C18.5313 6.568 19.2113 6.096 19.9953 5.76C20.7953 5.408 21.6833 5.232 22.6593 5.232C23.6353 5.232 24.5153 5.408 25.2993 5.76C26.0993 6.096 26.7793 6.568 27.3393 7.176C27.9153 7.768 28.3553 8.456 28.6593 9.24C28.9633 10.024 29.1153 10.856 29.1153 11.736C29.1153 12.616 28.9633 13.448 28.6593 14.232C28.3553 15 27.9153 15.688 27.3393 16.296C26.7793 16.904 26.0993 17.384 25.2993 17.736C24.5153 18.072 23.6353 18.24 22.6593 18.24ZM18.9153 11.76C18.9153 12.56 19.0833 13.28 19.4193 13.92C19.7553 14.56 20.2033 15.064 20.7633 15.432C21.3233 15.8 21.9553 15.984 22.6593 15.984C23.3473 15.984 23.9713 15.8 24.5313 15.432C25.1073 15.048 25.5633 14.536 25.8993 13.896C26.2353 13.24 26.4033 12.52 26.4033 11.736C26.4033 10.936 26.2353 10.216 25.8993 9.576C25.5633 8.936 25.1073 8.432 24.5313 8.064C23.9713 7.68 23.3473 7.488 22.6593 7.488C21.9553 7.488 21.3233 7.68 20.7633 8.064C20.2033 8.448 19.7553 8.96 19.4193 9.6C19.0833 10.224 18.9153 10.944 18.9153 11.76ZM31.6968 18V5.472H34.3368V14.472L40.6968 5.448H43.0968V18H40.4568V9.192L34.1688 18H31.6968ZM37.4088 4.152C36.2248 4.152 35.3048 3.856 34.6488 3.264C34.0088 2.672 33.6888 1.928 33.6888 1.032H35.4168C35.4168 1.496 35.5688 1.88 35.8728 2.184C36.1928 2.488 36.7048 2.64 37.4088 2.64C38.0968 2.64 38.5848 2.496 38.8728 2.208C39.1768 1.92 39.3608 1.528 39.4248 1.032H41.1528C41.1528 1.928 40.8248 2.672 40.1688 3.264C39.5288 3.856 38.6088 4.152 37.4088 4.152ZM49.4675 18V7.776H45.3155V5.448H56.2835V7.776H52.1075V18H49.4675ZM58.4971 18V5.472H61.1371V14.472L67.4971 5.448H69.8971V18H67.2571V9.192L60.9691 18H58.4971Z" fill="white"/>
</svg>
