<svg width="251" height="31" viewBox="0 0 251 31" fill="none" xmlns="http://www.w3.org/2000/svg">
<path d="M21.256 19.412C21.256 20.852 20.884 22.064 20.14 23.048C19.396 24.008 18.388 24.74 17.116 25.244C15.868 25.748 14.5 26 13.012 26H0.664V0.439999H14.344C15.544 0.439999 16.576 0.763999 17.44 1.412C18.328 2.036 19 2.852 19.456 3.86C19.936 4.844 20.176 5.876 20.176 6.956C20.176 8.18 19.864 9.344 19.24 10.448C18.616 11.552 17.704 12.368 16.504 12.896C17.968 13.328 19.12 14.108 19.96 15.236C20.824 16.364 21.256 17.756 21.256 19.412ZM16.252 18.476C16.252 17.828 16.12 17.252 15.856 16.748C15.592 16.22 15.232 15.812 14.776 15.524C14.344 15.212 13.84 15.056 13.264 15.056H5.632V21.788H13.012C13.612 21.788 14.152 21.644 14.632 21.356C15.136 21.044 15.532 20.636 15.82 20.132C16.108 19.628 16.252 19.076 16.252 18.476ZM5.632 4.688V11.132H12.256C12.808 11.132 13.312 11 13.768 10.736C14.224 10.472 14.584 10.1 14.848 9.62C15.136 9.14 15.28 8.564 15.28 7.892C15.28 7.244 15.148 6.68 14.884 6.2C14.644 5.72 14.308 5.348 13.876 5.084C13.468 4.82 13 4.688 12.472 4.688H5.632ZM27.7692 7.136L31.7292 13.04L32.0172 13.688L32.3772 13.04L36.3012 7.136H41.3772L34.8252 16.532L41.4852 26H36.4092L32.3412 20.132L32.0172 19.52L31.7292 20.132L27.6972 26H22.6212L29.2812 16.64L22.7292 7.136H27.7692ZM52.8702 26.36C51.3342 26.36 49.9542 26.108 48.7302 25.604C47.5062 25.076 46.4622 24.356 45.5982 23.444C44.7582 22.532 44.1102 21.488 43.6542 20.312C43.1982 19.136 42.9702 17.9 42.9702 16.604C42.9702 15.284 43.1982 14.036 43.6542 12.86C44.1102 11.684 44.7582 10.64 45.5982 9.728C46.4622 8.816 47.5062 8.108 48.7302 7.604C49.9542 7.076 51.3342 6.812 52.8702 6.812C54.4062 6.812 55.7742 7.076 56.9742 7.604C58.1982 8.108 59.2422 8.816 60.1062 9.728C60.9702 10.64 61.6182 11.684 62.0502 12.86C62.5062 14.036 62.7342 15.284 62.7342 16.604C62.7342 17.9 62.5062 19.136 62.0502 20.312C61.6182 21.488 60.9702 22.532 60.1062 23.444C59.2662 24.356 58.2342 25.076 57.0102 25.604C55.7862 26.108 54.4062 26.36 52.8702 26.36ZM47.9382 16.604C47.9382 17.708 48.1542 18.692 48.5862 19.556C49.0182 20.396 49.6062 21.056 50.3502 21.536C51.0942 22.016 51.9342 22.256 52.8702 22.256C53.7822 22.256 54.6102 22.016 55.3542 21.536C56.0982 21.032 56.6862 20.36 57.1182 19.52C57.5742 18.656 57.8022 17.672 57.8022 16.568C57.8022 15.488 57.5742 14.516 57.1182 13.652C56.6862 12.788 56.0982 12.116 55.3542 11.636C54.6102 11.156 53.7822 10.916 52.8702 10.916C51.9342 10.916 51.0942 11.168 50.3502 11.672C49.6062 12.152 49.0182 12.824 48.5862 13.688C48.1542 14.528 47.9382 15.5 47.9382 16.604ZM64.8022 30.572V21.788H65.3062C65.7862 21.788 66.2302 21.656 66.6382 21.392C67.0702 21.128 67.4422 20.684 67.7542 20.06C68.0902 19.412 68.3542 18.524 68.5462 17.396C68.7622 16.268 68.9062 14.828 68.9782 13.076L69.1942 7.136H83.3422V21.788H85.9702V30.572H81.7582V26H69.0502V30.572H64.8022ZM71.3902 21.788H78.5182V11.204H73.4062L73.2982 13.544C73.2262 15.128 73.1062 16.472 72.9382 17.576C72.7942 18.656 72.5902 19.544 72.3262 20.24C72.0862 20.912 71.7742 21.428 71.3902 21.788ZM98.4648 26V7.136H108.977C110.273 7.136 111.317 7.352 112.109 7.784C112.925 8.216 113.525 8.78 113.909 9.476C114.293 10.172 114.485 10.916 114.485 11.708C114.485 12.764 114.245 13.688 113.765 14.48C113.309 15.272 112.589 15.884 111.605 16.316C112.709 16.628 113.609 17.168 114.305 17.936C115.001 18.68 115.349 19.664 115.349 20.888C115.349 22.064 115.073 23.036 114.521 23.804C113.969 24.548 113.177 25.1 112.145 25.46C111.113 25.82 109.889 26 108.473 26H98.4648ZM103.037 22.724H108.329C108.761 22.724 109.157 22.616 109.517 22.4C109.877 22.184 110.153 21.896 110.345 21.536C110.561 21.176 110.669 20.78 110.669 20.348C110.669 19.892 110.573 19.496 110.381 19.16C110.189 18.8 109.913 18.524 109.553 18.332C109.217 18.116 108.821 18.008 108.365 18.008H103.037V22.724ZM103.037 14.984H107.753C108.185 14.984 108.569 14.876 108.905 14.66C109.241 14.444 109.493 14.156 109.661 13.796C109.853 13.436 109.949 13.04 109.949 12.608C109.949 11.984 109.745 11.468 109.337 11.06C108.953 10.628 108.437 10.412 107.789 10.412H103.037V14.984ZM139.6 26.18C137.728 26.18 136.024 25.82 134.488 25.1C132.976 24.38 131.668 23.408 130.564 22.184C129.484 20.936 128.644 19.544 128.044 18.008C127.444 16.448 127.144 14.852 127.144 13.22C127.144 11.516 127.456 9.896 128.08 8.36C128.728 6.8 129.604 5.42 130.708 4.22C131.836 2.996 133.156 2.036 134.668 1.34C136.204 0.619998 137.884 0.259999 139.708 0.259999C141.556 0.259999 143.236 0.631999 144.748 1.376C146.284 2.12 147.592 3.116 148.672 4.364C149.752 5.612 150.592 7.004 151.192 8.54C151.792 10.076 152.092 11.66 152.092 13.292C152.092 14.972 151.78 16.592 151.156 18.152C150.532 19.688 149.656 21.068 148.528 22.292C147.424 23.492 146.104 24.44 144.568 25.136C143.056 25.832 141.4 26.18 139.6 26.18ZM132.184 13.22C132.184 14.324 132.352 15.392 132.688 16.424C133.024 17.456 133.504 18.38 134.128 19.196C134.776 19.988 135.556 20.624 136.468 21.104C137.404 21.56 138.46 21.788 139.636 21.788C140.836 21.788 141.904 21.548 142.84 21.068C143.776 20.564 144.556 19.904 145.18 19.088C145.804 18.248 146.272 17.324 146.584 16.316C146.92 15.284 147.088 14.252 147.088 13.22C147.088 12.116 146.908 11.06 146.548 10.052C146.212 9.02 145.72 8.108 145.072 7.316C144.448 6.5 143.668 5.864 142.732 5.408C141.82 4.928 140.788 4.688 139.636 4.688C138.412 4.688 137.332 4.94 136.396 5.444C135.484 5.924 134.716 6.572 134.092 7.388C133.468 8.204 132.988 9.116 132.652 10.124C132.34 11.132 132.184 12.164 132.184 13.22ZM156.263 26V0.439999H165.551C168.335 0.439999 170.663 1.016 172.535 2.168C174.407 3.296 175.811 4.832 176.747 6.776C177.683 8.696 178.151 10.832 178.151 13.184C178.151 15.776 177.635 18.032 176.603 19.952C175.571 21.872 174.107 23.36 172.211 24.416C170.339 25.472 168.119 26 165.551 26H156.263ZM173.147 13.184C173.147 11.528 172.847 10.076 172.247 8.828C171.647 7.556 170.783 6.572 169.655 5.876C168.527 5.156 167.159 4.796 165.551 4.796H161.231V21.644H165.551C167.183 21.644 168.563 21.284 169.691 20.564C170.819 19.82 171.671 18.812 172.247 17.54C172.847 16.244 173.147 14.792 173.147 13.184ZM200.14 21.644V26H182.392V0.439999H199.816V4.796H187.36V10.952H198.124V14.984H187.36V21.644H200.14ZM204.373 26V0.439999H215.677C216.853 0.439999 217.933 0.679998 218.917 1.16C219.925 1.64 220.789 2.288 221.509 3.104C222.253 3.92 222.817 4.832 223.201 5.84C223.609 6.848 223.813 7.88 223.813 8.936C223.813 10.016 223.621 11.06 223.237 12.068C222.877 13.052 222.349 13.916 221.653 14.66C220.957 15.404 220.141 15.98 219.205 16.388L225.037 26H219.565L214.309 17.432H209.341V26H204.373ZM209.341 13.076H215.569C216.193 13.076 216.745 12.896 217.225 12.536C217.705 12.152 218.089 11.648 218.377 11.024C218.665 10.4 218.809 9.704 218.809 8.936C218.809 8.12 218.641 7.412 218.305 6.812C217.969 6.188 217.537 5.696 217.009 5.336C216.505 4.976 215.953 4.796 215.353 4.796H209.341V13.076ZM235.623 0.439999H240.663L250.059 26H244.947L242.571 19.628H233.643L231.303 26H226.191L235.623 0.439999ZM241.671 16.136L238.143 5.588L234.471 16.136H241.671Z" fill="#15144E"/>
</svg>
