<svg width="126" height="16" viewBox="0 0 126 16" fill="none" xmlns="http://www.w3.org/2000/svg">
<path opacity="0.6" d="M4.48 12.128C3.65867 12.128 2.91733 11.9573 2.256 11.616C1.60533 11.264 1.09333 10.7787 0.72 10.16L1.824 9.488C2.09067 9.936 2.448 10.288 2.896 10.544C3.344 10.7893 3.86133 10.912 4.448 10.912C5.22667 10.912 5.82933 10.72 6.256 10.336C6.69333 9.952 6.912 9.44 6.912 8.8C6.912 8.39467 6.82133 8.03733 6.64 7.728C6.45867 7.408 6.19733 7.16267 5.856 6.992C5.51467 6.81067 5.09867 6.72 4.608 6.72H3.44V5.584H4.624C5.008 5.584 5.33867 5.504 5.616 5.344C5.904 5.17333 6.12267 4.94933 6.272 4.672C6.432 4.384 6.512 4.064 6.512 3.712C6.512 3.33867 6.42667 3.01333 6.256 2.736C6.08533 2.448 5.84 2.224 5.52 2.064C5.21067 1.904 4.83733 1.824 4.4 1.824C3.84533 1.824 3.36 1.94667 2.944 2.192C2.528 2.42667 2.20267 2.752 1.968 3.168L0.912 2.448C1.27467 1.85067 1.74933 1.38133 2.336 1.04C2.92267 0.687999 3.632 0.511999 4.464 0.511999C5.15733 0.511999 5.76 0.634666 6.272 0.879999C6.784 1.12533 7.184 1.472 7.472 1.92C7.76 2.368 7.904 2.90133 7.904 3.52C7.904 4.07467 7.76533 4.58667 7.488 5.056C7.22133 5.51467 6.82133 5.86133 6.288 6.096C6.94933 6.27733 7.46133 6.624 7.824 7.136C8.18667 7.648 8.368 8.24533 8.368 8.928C8.368 9.6 8.19733 10.176 7.856 10.656C7.52533 11.136 7.06667 11.504 6.48 11.76C5.904 12.0053 5.23733 12.128 4.48 12.128ZM9.67125 9.584C9.67125 9.05067 9.82058 8.592 10.1192 8.208C10.4286 7.81333 10.8499 7.50933 11.3832 7.296C11.9166 7.08267 12.5353 6.976 13.2393 6.976C13.6126 6.976 14.0073 7.008 14.4233 7.072C14.8393 7.12533 15.2073 7.21067 15.5273 7.328V6.72C15.5273 6.08 15.3353 5.57867 14.9513 5.216C14.5672 4.84267 14.0232 4.656 13.3193 4.656C12.8606 4.656 12.4179 4.74133 11.9913 4.912C11.5752 5.072 11.1326 5.30667 10.6632 5.616L10.1512 4.624C10.6952 4.25067 11.2392 3.97333 11.7832 3.792C12.3273 3.6 12.8926 3.504 13.4792 3.504C14.5459 3.504 15.3886 3.80267 16.0073 4.4C16.6259 4.98667 16.9353 5.808 16.9353 6.864V10.4C16.9353 10.5707 16.9673 10.6987 17.0312 10.784C17.1059 10.8587 17.2233 10.9013 17.3833 10.912V12C17.2446 12.0213 17.1219 12.0373 17.0153 12.048C16.9193 12.0587 16.8393 12.064 16.7753 12.064C16.4446 12.064 16.1939 11.9733 16.0233 11.792C15.8633 11.6107 15.7726 11.4187 15.7513 11.216L15.7193 10.688C15.3566 11.1573 14.8819 11.52 14.2952 11.776C13.7086 12.032 13.1272 12.16 12.5512 12.16C11.9966 12.16 11.5006 12.048 11.0632 11.824C10.6259 11.5893 10.2846 11.28 10.0392 10.896C9.79392 10.5013 9.67125 10.064 9.67125 9.584ZM15.1112 10.176C15.2393 10.0267 15.3406 9.87733 15.4153 9.728C15.4899 9.568 15.5273 9.43467 15.5273 9.328V8.288C15.1966 8.16 14.8499 8.064 14.4873 8C14.1246 7.92533 13.7673 7.888 13.4152 7.888C12.7006 7.888 12.1192 8.032 11.6712 8.32C11.2339 8.59733 11.0152 8.98133 11.0152 9.472C11.0152 9.73867 11.0846 10 11.2232 10.256C11.3726 10.5013 11.5859 10.704 11.8633 10.864C12.1512 11.024 12.5032 11.104 12.9193 11.104C13.3566 11.104 13.7726 11.0187 14.1673 10.848C14.5619 10.6667 14.8766 10.4427 15.1112 10.176ZM23.2826 12.16C21.9066 12.16 20.8666 11.744 20.1626 10.912C19.4586 10.08 19.1066 8.90667 19.1066 7.392C19.1066 6.35733 19.192 5.488 19.3626 4.784C19.5333 4.06933 19.7893 3.48267 20.1306 3.024C20.472 2.55467 20.8933 2.176 21.3946 1.888C21.896 1.58933 22.472 1.344 23.1226 1.152L26.6586 0.079999L26.7386 1.296L23.2986 2.336C22.712 2.528 22.2213 2.77333 21.8266 3.072C21.432 3.37067 21.1226 3.75467 20.8986 4.224C20.6746 4.69333 20.5253 5.296 20.4506 6.032C20.728 5.46667 21.144 5.02933 21.6986 4.72C22.2533 4.4 22.8986 4.24 23.6346 4.24C24.424 4.24 25.1013 4.40533 25.6666 4.736C26.2426 5.056 26.68 5.50933 26.9786 6.096C27.288 6.672 27.4426 7.33867 27.4426 8.096C27.4426 8.90667 27.2826 9.616 26.9626 10.224C26.6426 10.832 26.1733 11.3067 25.5546 11.648C24.936 11.9893 24.1786 12.16 23.2826 12.16ZM23.2826 10.944C24.1466 10.944 24.8133 10.6933 25.2826 10.192C25.7626 9.68 26.0026 9.00267 26.0026 8.16C26.0026 7.33867 25.768 6.672 25.2986 6.16C24.8293 5.648 24.1573 5.392 23.2826 5.392C22.7706 5.392 22.3066 5.49867 21.8906 5.712C21.4853 5.92533 21.16 6.24 20.9146 6.656C20.68 7.06133 20.5626 7.56267 20.5626 8.16C20.5626 8.69333 20.664 9.17333 20.8666 9.6C21.08 10.016 21.3893 10.3467 21.7946 10.592C22.2 10.8267 22.696 10.944 23.2826 10.944ZM29.3031 12V3.648H30.7111V6.496H32.4071C33.3885 6.496 34.1298 6.74667 34.6311 7.248C35.1431 7.73867 35.3991 8.384 35.3991 9.184C35.3991 9.71733 35.2871 10.1973 35.0631 10.624C34.8498 11.0507 34.5298 11.3867 34.1031 11.632C33.6765 11.8773 33.1431 12 32.5031 12H29.3031ZM30.7111 10.896H32.3111C32.7058 10.896 33.0205 10.8213 33.2551 10.672C33.5005 10.512 33.6818 10.304 33.7991 10.048C33.9165 9.792 33.9751 9.51467 33.9751 9.216C33.9751 8.928 33.9218 8.66133 33.8151 8.416C33.7085 8.17067 33.5325 7.97333 33.2871 7.824C33.0418 7.67467 32.7058 7.6 32.2791 7.6H30.7111V10.896ZM36.8391 12V3.664H38.2471V12H36.8391ZM39.9462 12.064V10.8C40.2236 10.8 40.4689 10.7307 40.6822 10.592C40.9062 10.4427 41.1036 10.1973 41.2742 9.856C41.4449 9.504 41.5782 9.024 41.6742 8.416C41.7809 7.79733 41.8502 7.01333 41.8822 6.064L41.9782 3.648H47.6582V12H46.2502V4.896H43.2262L43.1942 6.192C43.1516 7.33333 43.0556 8.28267 42.9062 9.04C42.7569 9.79733 42.5489 10.3947 42.2822 10.832C42.0156 11.2693 41.6849 11.584 41.2902 11.776C40.9062 11.968 40.4582 12.064 39.9462 12.064ZM50.0762 12V3.664H51.4842V10.112L56.1562 3.648H57.4362V12H56.0282V5.68L51.4202 12H50.0762ZM64.0369 12V3.648H70.9649V12H69.5569V4.896H65.4449V12H64.0369ZM72.7444 9.584C72.7444 9.05067 72.8937 8.592 73.1924 8.208C73.5017 7.81333 73.923 7.50933 74.4564 7.296C74.9897 7.08267 75.6084 6.976 76.3124 6.976C76.6857 6.976 77.0804 7.008 77.4964 7.072C77.9124 7.12533 78.2804 7.21067 78.6004 7.328V6.72C78.6004 6.08 78.4084 5.57867 78.0244 5.216C77.6404 4.84267 77.0964 4.656 76.3924 4.656C75.9337 4.656 75.491 4.74133 75.0644 4.912C74.6484 5.072 74.2057 5.30667 73.7364 5.616L73.2244 4.624C73.7684 4.25067 74.3124 3.97333 74.8564 3.792C75.4004 3.6 75.9657 3.504 76.5524 3.504C77.619 3.504 78.4617 3.80267 79.0804 4.4C79.699 4.98667 80.0084 5.808 80.0084 6.864V10.4C80.0084 10.5707 80.0404 10.6987 80.1044 10.784C80.179 10.8587 80.2964 10.9013 80.4564 10.912V12C80.3177 12.0213 80.195 12.0373 80.0884 12.048C79.9924 12.0587 79.9124 12.064 79.8484 12.064C79.5177 12.064 79.267 11.9733 79.0964 11.792C78.9364 11.6107 78.8457 11.4187 78.8244 11.216L78.7924 10.688C78.4297 11.1573 77.955 11.52 77.3684 11.776C76.7817 12.032 76.2004 12.16 75.6244 12.16C75.0697 12.16 74.5737 12.048 74.1364 11.824C73.699 11.5893 73.3577 11.28 73.1124 10.896C72.867 10.5013 72.7444 10.064 72.7444 9.584ZM78.1844 10.176C78.3124 10.0267 78.4137 9.87733 78.4884 9.728C78.563 9.568 78.6004 9.43467 78.6004 9.328V8.288C78.2697 8.16 77.923 8.064 77.5604 8C77.1977 7.92533 76.8404 7.888 76.4884 7.888C75.7737 7.888 75.1924 8.032 74.7444 8.32C74.307 8.59733 74.0884 8.98133 74.0884 9.472C74.0884 9.73867 74.1577 10 74.2964 10.256C74.4457 10.5013 74.659 10.704 74.9364 10.864C75.2244 11.024 75.5764 11.104 75.9924 11.104C76.4297 11.104 76.8457 11.0187 77.2404 10.848C77.635 10.6667 77.9497 10.4427 78.1844 10.176ZM86.9158 12.16C86.2331 12.16 85.6251 11.9893 85.0918 11.648C84.5584 11.3067 84.1371 10.8747 83.8278 10.352V15.408H82.4198V3.648H83.6678V5.216C83.9984 4.704 84.4304 4.29333 84.9638 3.984C85.4971 3.664 86.0784 3.504 86.7078 3.504C87.2838 3.504 87.8118 3.62133 88.2918 3.856C88.7718 4.09067 89.1878 4.41067 89.5398 4.816C89.8918 5.22133 90.1638 5.68533 90.3558 6.208C90.5584 6.72 90.6598 7.25867 90.6598 7.824C90.6598 8.61333 90.4998 9.33867 90.1798 10C89.8704 10.6613 89.4331 11.1893 88.8678 11.584C88.3024 11.968 87.6518 12.16 86.9158 12.16ZM86.4838 10.944C86.8998 10.944 87.2731 10.8587 87.6038 10.688C87.9451 10.5067 88.2331 10.272 88.4678 9.984C88.7131 9.68533 88.8998 9.34933 89.0278 8.976C89.1558 8.60267 89.2198 8.21867 89.2198 7.824C89.2198 7.408 89.1451 7.01333 88.9958 6.64C88.8571 6.26667 88.6544 5.936 88.3878 5.648C88.1318 5.36 87.8278 5.136 87.4758 4.976C87.1344 4.80533 86.7611 4.72 86.3558 4.72C86.0998 4.72 85.8331 4.768 85.5558 4.864C85.2891 4.96 85.0331 5.09867 84.7878 5.28C84.5424 5.45067 84.3344 5.648 84.1638 5.872C83.9931 6.096 83.8811 6.336 83.8278 6.592V8.976C83.9878 9.33867 84.2011 9.66933 84.4678 9.968C84.7344 10.2667 85.0438 10.5067 85.3958 10.688C85.7478 10.8587 86.1104 10.944 86.4838 10.944ZM96.1965 12.16C95.5672 12.16 94.9965 12.048 94.4845 11.824C93.9725 11.5893 93.5298 11.2747 93.1565 10.88C92.7832 10.4747 92.4952 10.0107 92.2925 9.488C92.0898 8.96533 91.9885 8.416 91.9885 7.84C91.9885 7.25333 92.0898 6.69867 92.2925 6.176C92.4952 5.65333 92.7832 5.19467 93.1565 4.8C93.5298 4.39467 93.9725 4.08 94.4845 3.856C95.0072 3.62133 95.5778 3.504 96.1965 3.504C96.8258 3.504 97.3965 3.62133 97.9085 3.856C98.4205 4.08 98.8632 4.39467 99.2365 4.8C99.6205 5.19467 99.9138 5.65333 100.116 6.176C100.319 6.69867 100.42 7.25333 100.42 7.84C100.42 8.416 100.319 8.96533 100.116 9.488C99.9138 10.0107 99.6258 10.4747 99.2525 10.88C98.8792 11.2747 98.4312 11.5893 97.9085 11.824C97.3965 12.048 96.8258 12.16 96.1965 12.16ZM93.4285 7.856C93.4285 8.432 93.5512 8.95467 93.7965 9.424C94.0525 9.89333 94.3885 10.2667 94.8045 10.544C95.2205 10.8107 95.6845 10.944 96.1965 10.944C96.7085 10.944 97.1725 10.8053 97.5885 10.528C98.0152 10.2507 98.3512 9.87733 98.5965 9.408C98.8525 8.928 98.9805 8.4 98.9805 7.824C98.9805 7.248 98.8525 6.72533 98.5965 6.256C98.3512 5.78667 98.0152 5.41333 97.5885 5.136C97.1725 4.85867 96.7085 4.72 96.1965 4.72C95.6845 4.72 95.2205 4.864 94.8045 5.152C94.3885 5.42933 94.0525 5.80267 93.7965 6.272C93.5512 6.74133 93.4285 7.26933 93.4285 7.856ZM101.551 12.064V10.8C101.828 10.8 102.073 10.7307 102.287 10.592C102.511 10.4427 102.708 10.1973 102.879 9.856C103.049 9.504 103.183 9.024 103.279 8.416C103.385 7.79733 103.455 7.01333 103.487 6.064L103.583 3.648H109.263V12H107.855V4.896H104.831L104.799 6.192C104.756 7.33333 104.66 8.28267 104.511 9.04C104.361 9.79733 104.153 10.3947 103.887 10.832C103.62 11.2693 103.289 11.584 102.895 11.776C102.511 11.968 102.063 12.064 101.551 12.064ZM111.681 12V3.648H113.089V6.496H115.169C116.15 6.496 116.891 6.74667 117.393 7.248C117.905 7.73867 118.161 8.384 118.161 9.184C118.161 9.71733 118.049 10.1973 117.825 10.624C117.611 11.0507 117.291 11.3867 116.865 11.632C116.438 11.8773 115.905 12 115.265 12H111.681ZM113.089 10.896H115.073C115.467 10.896 115.782 10.8213 116.017 10.672C116.262 10.512 116.443 10.304 116.561 10.048C116.678 9.792 116.737 9.51467 116.737 9.216C116.737 8.928 116.683 8.66133 116.577 8.416C116.47 8.17067 116.294 7.97333 116.049 7.824C115.803 7.67467 115.467 7.6 115.041 7.6H113.089V10.896ZM121.025 8.624C121.025 8.24 121.067 7.888 121.153 7.568C121.249 7.248 121.393 6.96 121.585 6.704C121.787 6.43733 122.049 6.20267 122.369 6C122.561 5.872 122.779 5.73867 123.025 5.6C123.281 5.46133 123.521 5.30133 123.745 5.12C123.979 4.928 124.171 4.704 124.321 4.448C124.47 4.18133 124.545 3.86667 124.545 3.504C124.545 3.09867 124.449 2.76267 124.257 2.496C124.075 2.21867 123.835 2.01067 123.537 1.872C123.238 1.73333 122.918 1.664 122.577 1.664C122.225 1.664 121.894 1.73333 121.585 1.872C121.275 2.01067 121.003 2.19733 120.769 2.432C120.545 2.656 120.358 2.90667 120.209 3.184L119.265 2.56C119.457 2.12267 119.723 1.74933 120.065 1.44C120.417 1.13067 120.811 0.896 121.249 0.735999C121.686 0.575999 122.139 0.495999 122.609 0.495999C123.003 0.495999 123.387 0.559999 123.761 0.688C124.145 0.805333 124.486 0.991999 124.785 1.248C125.094 1.504 125.339 1.824 125.521 2.208C125.702 2.592 125.793 3.04533 125.793 3.568C125.793 3.97333 125.739 4.32 125.633 4.608C125.526 4.896 125.377 5.14667 125.185 5.36C125.003 5.57333 124.79 5.76 124.545 5.92C124.299 6.08 124.043 6.23467 123.777 6.384C123.521 6.52267 123.27 6.67733 123.025 6.848C122.79 7.01867 122.593 7.24267 122.433 7.52C122.283 7.78667 122.209 8.15467 122.209 8.624H121.025ZM121.057 12V10.144H122.241V12H121.057Z" fill="#15144E"/>
</svg>
