<svg width="70" height="19" viewBox="0 0 70 19" fill="none" xmlns="http://www.w3.org/2000/svg">
<path d="M13.32 18V2.88H6.96L6.864 6.264C6.784 8.584 6.608 10.512 6.336 12.048C6.08 13.568 5.704 14.768 5.208 15.648C4.728 16.512 4.128 17.128 3.408 17.496C2.688 17.864 1.832 18.048 0.84 18.048V16.152C1.448 16.152 1.984 16 2.448 15.696C2.912 15.392 3.304 14.864 3.624 14.112C3.96 13.344 4.224 12.28 4.416 10.92C4.608 9.56 4.736 7.824 4.8 5.712L4.944 0.959999H15.48V18H13.32ZM24.9473 18.24C24.0033 18.24 23.1472 18.072 22.3792 17.736C21.6112 17.384 20.9472 16.912 20.3872 16.32C19.8272 15.712 19.3952 15.016 19.0912 14.232C18.7872 13.448 18.6352 12.624 18.6352 11.76C18.6352 10.88 18.7872 10.048 19.0912 9.264C19.3952 8.48 19.8272 7.792 20.3872 7.2C20.9472 6.592 21.6112 6.12 22.3792 5.784C23.1632 5.432 24.0193 5.256 24.9473 5.256C25.8913 5.256 26.7473 5.432 27.5153 5.784C28.2833 6.12 28.9473 6.592 29.5073 7.2C30.0833 7.792 30.5233 8.48 30.8273 9.264C31.1313 10.048 31.2833 10.88 31.2833 11.76C31.2833 12.624 31.1313 13.448 30.8273 14.232C30.5233 15.016 30.0913 15.712 29.5312 16.32C28.9713 16.912 28.2993 17.384 27.5153 17.736C26.7473 18.072 25.8913 18.24 24.9473 18.24ZM20.7952 11.784C20.7952 12.648 20.9792 13.432 21.3472 14.136C21.7312 14.84 22.2352 15.4 22.8593 15.816C23.4833 16.216 24.1793 16.416 24.9473 16.416C25.7153 16.416 26.4112 16.208 27.0352 15.792C27.6753 15.376 28.1793 14.816 28.5473 14.112C28.9313 13.392 29.1233 12.6 29.1233 11.736C29.1233 10.872 28.9313 10.088 28.5473 9.384C28.1793 8.68 27.6753 8.12 27.0352 7.704C26.4112 7.288 25.7153 7.08 24.9473 7.08C24.1793 7.08 23.4833 7.296 22.8593 7.728C22.2352 8.144 21.7312 8.704 21.3472 9.408C20.9792 10.112 20.7952 10.904 20.7952 11.784ZM34.0584 18V5.472H41.7864V7.344H36.1704V18H34.0584ZM44.1656 18V5.496H46.2776V15.168L53.2856 5.472H55.2056V18H53.0936V8.52L46.1816 18H44.1656ZM58.7962 18V5.472H60.9082V10.656H67.4362V5.472H69.5482V18H67.4362V12.528H60.9082V18H58.7962Z" fill="#15144E" fill-opacity="0.6"/>
</svg>
