<svg width="219" height="16" viewBox="0 0 219 16" fill="none" xmlns="http://www.w3.org/2000/svg">
<path opacity="0.6" d="M9.496 0.639999V12H8.056V6.832H1.8V12H0.36V0.639999H1.8V5.552H8.056V0.639999H9.496ZM15.7108 12.16C15.0814 12.16 14.5054 12.048 13.9827 11.824C13.4708 11.5893 13.0228 11.2747 12.6387 10.88C12.2654 10.4747 11.9721 10.0107 11.7587 9.488C11.5561 8.96533 11.4547 8.41067 11.4547 7.824C11.4547 7.03467 11.6361 6.31467 11.9987 5.664C12.3614 5.01333 12.8627 4.49067 13.5027 4.096C14.1534 3.70133 14.8947 3.504 15.7267 3.504C16.5694 3.504 17.3001 3.70667 17.9188 4.112C18.5481 4.50667 19.0334 5.02933 19.3748 5.68C19.7268 6.32 19.9028 7.01333 19.9028 7.76C19.9028 7.86667 19.8974 7.97333 19.8868 8.08C19.8868 8.176 19.8814 8.25067 19.8708 8.304H12.9427C12.9854 8.848 13.1347 9.33333 13.3907 9.76C13.6574 10.176 13.9988 10.5067 14.4148 10.752C14.8308 10.9867 15.2788 11.104 15.7587 11.104C16.2708 11.104 16.7508 10.976 17.1988 10.72C17.6574 10.464 17.9721 10.128 18.1428 9.712L19.3588 10.048C19.1774 10.4533 18.9054 10.816 18.5428 11.136C18.1908 11.456 17.7694 11.7067 17.2787 11.888C16.7988 12.0693 16.2761 12.16 15.7108 12.16ZM12.8947 7.328H18.5908C18.5481 6.784 18.3934 6.304 18.1267 5.888C17.8601 5.472 17.5188 5.14667 17.1028 4.912C16.6868 4.67733 16.2281 4.56 15.7267 4.56C15.2361 4.56 14.7827 4.67733 14.3668 4.912C13.9507 5.14667 13.6094 5.472 13.3428 5.888C13.0868 6.304 12.9374 6.784 12.8947 7.328ZM23.6599 12V4.896H20.7799V3.648H27.9479V4.896H25.0679V12H23.6599ZM33.0731 9.584C33.0731 9.05067 33.2225 8.592 33.5211 8.208C33.8305 7.81333 34.2518 7.50933 34.7851 7.296C35.3185 7.08267 35.9371 6.976 36.6411 6.976C37.0145 6.976 37.4091 7.008 37.8251 7.072C38.2411 7.12533 38.6091 7.21067 38.9291 7.328V6.72C38.9291 6.08 38.7371 5.57867 38.3531 5.216C37.9691 4.84267 37.4251 4.656 36.7211 4.656C36.2625 4.656 35.8198 4.74133 35.3931 4.912C34.9771 5.072 34.5345 5.30667 34.0651 5.616L33.5531 4.624C34.0971 4.25067 34.6411 3.97333 35.1851 3.792C35.7291 3.6 36.2945 3.504 36.8811 3.504C37.9478 3.504 38.7905 3.80267 39.4091 4.4C40.0278 4.98667 40.3371 5.808 40.3371 6.864V10.4C40.3371 10.5707 40.3691 10.6987 40.4331 10.784C40.5078 10.8587 40.6251 10.9013 40.7851 10.912V12C40.6465 12.0213 40.5238 12.0373 40.4171 12.048C40.3211 12.0587 40.2411 12.064 40.1771 12.064C39.8465 12.064 39.5958 11.9733 39.4251 11.792C39.2651 11.6107 39.1745 11.4187 39.1531 11.216L39.1211 10.688C38.7585 11.1573 38.2838 11.52 37.6971 11.776C37.1105 12.032 36.5291 12.16 35.9531 12.16C35.3985 12.16 34.9025 12.048 34.4651 11.824C34.0278 11.5893 33.6865 11.28 33.4411 10.896C33.1958 10.5013 33.0731 10.064 33.0731 9.584ZM38.5131 10.176C38.6411 10.0267 38.7425 9.87733 38.8171 9.728C38.8918 9.568 38.9291 9.43467 38.9291 9.328V8.288C38.5985 8.16 38.2518 8.064 37.8891 8C37.5265 7.92533 37.1691 7.888 36.8171 7.888C36.1025 7.888 35.5211 8.032 35.0731 8.32C34.6358 8.59733 34.4171 8.98133 34.4171 9.472C34.4171 9.73867 34.4865 10 34.6251 10.256C34.7745 10.5013 34.9878 10.704 35.2651 10.864C35.5531 11.024 35.9051 11.104 36.3211 11.104C36.7585 11.104 37.1745 11.0187 37.5691 10.848C37.9638 10.6667 38.2785 10.4427 38.5131 10.176ZM42.7325 12V3.648H44.1405V7.088H45.0685L47.6925 3.648H49.2925L46.1725 7.696L49.6605 12H48.0285L45.0685 8.384H44.1405V12H42.7325ZM51.1894 12V3.648H52.5974V7.088H53.5254L56.1494 3.648H57.7494L54.6294 7.696L58.1174 12H56.4854L53.5254 8.384H52.5974V12H51.1894ZM59.0062 9.584C59.0062 9.05067 59.1556 8.592 59.4542 8.208C59.7636 7.81333 60.1849 7.50933 60.7182 7.296C61.2516 7.08267 61.8702 6.976 62.5742 6.976C62.9476 6.976 63.3422 7.008 63.7582 7.072C64.1742 7.12533 64.5422 7.21067 64.8622 7.328V6.72C64.8622 6.08 64.6702 5.57867 64.2862 5.216C63.9022 4.84267 63.3582 4.656 62.6542 4.656C62.1956 4.656 61.7529 4.74133 61.3262 4.912C60.9102 5.072 60.4676 5.30667 59.9982 5.616L59.4862 4.624C60.0302 4.25067 60.5742 3.97333 61.1182 3.792C61.6622 3.6 62.2276 3.504 62.8142 3.504C63.8809 3.504 64.7236 3.80267 65.3422 4.4C65.9609 4.98667 66.2702 5.808 66.2702 6.864V10.4C66.2702 10.5707 66.3022 10.6987 66.3662 10.784C66.4409 10.8587 66.5582 10.9013 66.7182 10.912V12C66.5796 12.0213 66.4569 12.0373 66.3502 12.048C66.2542 12.0587 66.1742 12.064 66.1102 12.064C65.7796 12.064 65.5289 11.9733 65.3582 11.792C65.1982 11.6107 65.1076 11.4187 65.0862 11.216L65.0542 10.688C64.6916 11.1573 64.2169 11.52 63.6302 11.776C63.0436 12.032 62.4622 12.16 61.8862 12.16C61.3316 12.16 60.8356 12.048 60.3982 11.824C59.9609 11.5893 59.6196 11.28 59.3742 10.896C59.1289 10.5013 59.0062 10.064 59.0062 9.584ZM64.4462 10.176C64.5742 10.0267 64.6756 9.87733 64.7502 9.728C64.8249 9.568 64.8622 9.43467 64.8622 9.328V8.288C64.5316 8.16 64.1849 8.064 63.8222 8C63.4596 7.92533 63.1022 7.888 62.7502 7.888C62.0356 7.888 61.4542 8.032 61.0062 8.32C60.5689 8.59733 60.3502 8.98133 60.3502 9.472C60.3502 9.73867 60.4196 10 60.5582 10.256C60.7076 10.5013 60.9209 10.704 61.1982 10.864C61.4862 11.024 61.8382 11.104 62.2542 11.104C62.6916 11.104 63.1076 11.0187 63.5022 10.848C63.8969 10.6667 64.2116 10.4427 64.4462 10.176ZM69.456 15.504C69.2747 15.504 69.088 15.4773 68.896 15.424C68.7147 15.3707 68.528 15.2907 68.336 15.184L68.816 14.224C68.912 14.2773 69.0027 14.3147 69.088 14.336C69.184 14.368 69.2747 14.384 69.36 14.384C69.616 14.384 69.856 14.2613 70.08 14.016C70.3147 13.7813 70.5333 13.4187 70.736 12.928L71.136 11.92L67.472 3.648H68.96L71.776 10.576L74.32 3.648H75.712L71.808 13.36C71.616 13.84 71.3973 14.2347 71.152 14.544C70.9067 14.864 70.64 15.104 70.352 15.264C70.064 15.424 69.7653 15.504 69.456 15.504ZM77.2788 12V3.648H78.6868V7.104H83.0388V3.648H84.4468V12H83.0388V8.352H78.6868V12H77.2788ZM88.9086 12V4.896H86.0286V3.648H93.1966V4.896H90.3166V12H88.9086ZM94.115 9.584C94.115 9.05067 94.2643 8.592 94.563 8.208C94.8723 7.81333 95.2937 7.50933 95.827 7.296C96.3603 7.08267 96.979 6.976 97.683 6.976C98.0563 6.976 98.451 7.008 98.867 7.072C99.283 7.12533 99.651 7.21067 99.971 7.328V6.72C99.971 6.08 99.779 5.57867 99.395 5.216C99.011 4.84267 98.467 4.656 97.763 4.656C97.3043 4.656 96.8617 4.74133 96.435 4.912C96.019 5.072 95.5763 5.30667 95.107 5.616L94.595 4.624C95.139 4.25067 95.683 3.97333 96.227 3.792C96.771 3.6 97.3363 3.504 97.923 3.504C98.9897 3.504 99.8323 3.80267 100.451 4.4C101.07 4.98667 101.379 5.808 101.379 6.864V10.4C101.379 10.5707 101.411 10.6987 101.475 10.784C101.55 10.8587 101.667 10.9013 101.827 10.912V12C101.688 12.0213 101.566 12.0373 101.459 12.048C101.363 12.0587 101.283 12.064 101.219 12.064C100.888 12.064 100.638 11.9733 100.467 11.792C100.307 11.6107 100.216 11.4187 100.195 11.216L100.163 10.688C99.8003 11.1573 99.3257 11.52 98.739 11.776C98.1523 12.032 97.571 12.16 96.995 12.16C96.4403 12.16 95.9443 12.048 95.507 11.824C95.0697 11.5893 94.7283 11.28 94.483 10.896C94.2377 10.5013 94.115 10.064 94.115 9.584ZM99.555 10.176C99.683 10.0267 99.7843 9.87733 99.859 9.728C99.9337 9.568 99.971 9.43467 99.971 9.328V8.288C99.6403 8.16 99.2937 8.064 98.931 8C98.5683 7.92533 98.211 7.888 97.859 7.888C97.1443 7.888 96.563 8.032 96.115 8.32C95.6777 8.59733 95.459 8.98133 95.459 9.472C95.459 9.73867 95.5283 10 95.667 10.256C95.8163 10.5013 96.0297 10.704 96.307 10.864C96.595 11.024 96.947 11.104 97.363 11.104C97.8003 11.104 98.2163 11.0187 98.611 10.848C99.0057 10.6667 99.3203 10.4427 99.555 10.176ZM104.646 8.624C104.646 8.24 104.689 7.888 104.774 7.568C104.87 7.248 105.014 6.96 105.206 6.704C105.409 6.43733 105.67 6.20267 105.99 6C106.182 5.872 106.401 5.73867 106.646 5.6C106.902 5.46133 107.142 5.30133 107.366 5.12C107.601 4.928 107.793 4.704 107.942 4.448C108.091 4.18133 108.166 3.86667 108.166 3.504C108.166 3.09867 108.07 2.76267 107.878 2.496C107.697 2.21867 107.457 2.01067 107.158 1.872C106.859 1.73333 106.539 1.664 106.198 1.664C105.846 1.664 105.515 1.73333 105.206 1.872C104.897 2.01067 104.625 2.19733 104.39 2.432C104.166 2.656 103.979 2.90667 103.83 3.184L102.886 2.56C103.078 2.12267 103.345 1.74933 103.686 1.44C104.038 1.13067 104.433 0.896 104.87 0.735999C105.307 0.575999 105.761 0.495999 106.23 0.495999C106.625 0.495999 107.009 0.559999 107.382 0.688C107.766 0.805333 108.107 0.991999 108.406 1.248C108.715 1.504 108.961 1.824 109.142 2.208C109.323 2.592 109.414 3.04533 109.414 3.568C109.414 3.97333 109.361 4.32 109.254 4.608C109.147 4.896 108.998 5.14667 108.806 5.36C108.625 5.57333 108.411 5.76 108.166 5.92C107.921 6.08 107.665 6.23467 107.398 6.384C107.142 6.52267 106.891 6.67733 106.646 6.848C106.411 7.01867 106.214 7.24267 106.054 7.52C105.905 7.78667 105.83 8.15467 105.83 8.624H104.646ZM104.678 12V10.144H105.862V12H104.678ZM114.989 6.24C114.989 5.54667 115.106 4.86933 115.341 4.208C115.586 3.536 115.938 2.928 116.397 2.384C116.866 1.82933 117.437 1.392 118.109 1.072C118.781 0.741333 119.544 0.575999 120.397 0.575999C121.41 0.575999 122.28 0.810666 123.005 1.28C123.73 1.73867 124.269 2.33067 124.621 3.056L123.485 3.792C123.261 3.312 122.973 2.93333 122.621 2.656C122.28 2.368 121.906 2.16533 121.501 2.048C121.106 1.93067 120.717 1.872 120.333 1.872C119.704 1.872 119.144 2 118.653 2.256C118.173 2.512 117.768 2.85333 117.437 3.28C117.106 3.70667 116.856 4.18667 116.685 4.72C116.525 5.24267 116.445 5.77067 116.445 6.304C116.445 6.89067 116.541 7.456 116.733 8C116.936 8.544 117.213 9.024 117.565 9.44C117.917 9.856 118.333 10.1867 118.813 10.432C119.293 10.6773 119.816 10.8 120.381 10.8C120.776 10.8 121.181 10.7307 121.597 10.592C122.013 10.4533 122.402 10.24 122.765 9.952C123.128 9.65333 123.416 9.26933 123.629 8.8L124.829 9.456C124.594 10.0213 124.232 10.5013 123.741 10.896C123.25 11.2907 122.701 11.5893 122.093 11.792C121.496 11.9947 120.904 12.096 120.317 12.096C119.538 12.096 118.824 11.9307 118.173 11.6C117.522 11.2587 116.957 10.8107 116.477 10.256C116.008 9.69067 115.64 9.06133 115.373 8.368C115.117 7.664 114.989 6.95467 114.989 6.24ZM130.215 12.16C129.586 12.16 129.015 12.048 128.503 11.824C127.991 11.5893 127.549 11.2747 127.175 10.88C126.802 10.4747 126.514 10.0107 126.311 9.488C126.109 8.96533 126.007 8.416 126.007 7.84C126.007 7.25333 126.109 6.69867 126.311 6.176C126.514 5.65333 126.802 5.19467 127.175 4.8C127.549 4.39467 127.991 4.08 128.503 3.856C129.026 3.62133 129.597 3.504 130.215 3.504C130.845 3.504 131.415 3.62133 131.927 3.856C132.439 4.08 132.882 4.39467 133.255 4.8C133.639 5.19467 133.933 5.65333 134.135 6.176C134.338 6.69867 134.439 7.25333 134.439 7.84C134.439 8.416 134.338 8.96533 134.135 9.488C133.933 10.0107 133.645 10.4747 133.271 10.88C132.898 11.2747 132.45 11.5893 131.927 11.824C131.415 12.048 130.845 12.16 130.215 12.16ZM127.447 7.856C127.447 8.432 127.57 8.95467 127.815 9.424C128.071 9.89333 128.407 10.2667 128.823 10.544C129.239 10.8107 129.703 10.944 130.215 10.944C130.727 10.944 131.191 10.8053 131.607 10.528C132.034 10.2507 132.37 9.87733 132.615 9.408C132.871 8.928 132.999 8.4 132.999 7.824C132.999 7.248 132.871 6.72533 132.615 6.256C132.37 5.78667 132.034 5.41333 131.607 5.136C131.191 4.85867 130.727 4.72 130.215 4.72C129.703 4.72 129.239 4.864 128.823 5.152C128.407 5.42933 128.071 5.80267 127.815 6.272C127.57 6.74133 127.447 7.26933 127.447 7.856ZM138.913 12.112C138.103 12.112 137.415 11.9627 136.849 11.664C136.295 11.3547 135.868 10.928 135.569 10.384L136.721 9.872C136.913 10.2133 137.185 10.48 137.537 10.672C137.9 10.864 138.337 10.96 138.849 10.96C139.457 10.96 139.937 10.8267 140.289 10.56C140.641 10.2933 140.817 9.936 140.817 9.488C140.817 9.08267 140.673 8.75733 140.385 8.512C140.108 8.256 139.713 8.12267 139.201 8.112H138.353V7.184H139.249C139.473 7.184 139.671 7.13067 139.841 7.024C140.023 6.90667 140.161 6.752 140.257 6.56C140.364 6.368 140.417 6.15467 140.417 5.92C140.417 5.54667 140.284 5.248 140.017 5.024C139.751 4.78933 139.351 4.672 138.817 4.672C138.38 4.672 138.012 4.75733 137.713 4.928C137.425 5.09867 137.191 5.35467 137.009 5.696L135.937 5.12C136.204 4.61867 136.588 4.22933 137.089 3.952C137.601 3.664 138.199 3.52 138.881 3.52C139.425 3.52 139.905 3.61067 140.321 3.792C140.748 3.96267 141.079 4.21333 141.313 4.544C141.559 4.87467 141.681 5.27467 141.681 5.744C141.681 6.13867 141.585 6.50667 141.393 6.848C141.212 7.17867 140.94 7.42933 140.577 7.6C141.079 7.74933 141.463 8.01067 141.729 8.384C141.996 8.74667 142.129 9.17867 142.129 9.68C142.129 10.192 141.991 10.6293 141.713 10.992C141.436 11.3547 141.057 11.632 140.577 11.824C140.097 12.016 139.543 12.112 138.913 12.112ZM143.053 13.968V10.752H143.229C143.464 10.752 143.677 10.6827 143.869 10.544C144.072 10.4053 144.248 10.1653 144.397 9.824C144.557 9.472 144.685 8.992 144.781 8.384C144.877 7.776 144.941 7.00267 144.973 6.064L145.053 3.648H150.733V10.752H151.869V13.968H150.621V12H144.301V13.968H143.053ZM145.197 10.752H149.325V4.896H146.301L146.253 6.192C146.221 7.09867 146.157 7.86133 146.061 8.48C145.976 9.088 145.858 9.57333 145.709 9.936C145.57 10.2987 145.4 10.5707 145.197 10.752ZM152.938 9.584C152.938 9.05067 153.087 8.592 153.386 8.208C153.695 7.81333 154.117 7.50933 154.65 7.296C155.183 7.08267 155.802 6.976 156.506 6.976C156.879 6.976 157.274 7.008 157.69 7.072C158.106 7.12533 158.474 7.21067 158.794 7.328V6.72C158.794 6.08 158.602 5.57867 158.218 5.216C157.834 4.84267 157.29 4.656 156.586 4.656C156.127 4.656 155.685 4.74133 155.258 4.912C154.842 5.072 154.399 5.30667 153.93 5.616L153.418 4.624C153.962 4.25067 154.506 3.97333 155.05 3.792C155.594 3.6 156.159 3.504 156.746 3.504C157.813 3.504 158.655 3.80267 159.274 4.4C159.893 4.98667 160.202 5.808 160.202 6.864V10.4C160.202 10.5707 160.234 10.6987 160.298 10.784C160.373 10.8587 160.49 10.9013 160.65 10.912V12C160.511 12.0213 160.389 12.0373 160.282 12.048C160.186 12.0587 160.106 12.064 160.042 12.064C159.711 12.064 159.461 11.9733 159.29 11.792C159.13 11.6107 159.039 11.4187 159.018 11.216L158.986 10.688C158.623 11.1573 158.149 11.52 157.562 11.776C156.975 12.032 156.394 12.16 155.818 12.16C155.263 12.16 154.767 12.048 154.33 11.824C153.893 11.5893 153.551 11.28 153.306 10.896C153.061 10.5013 152.938 10.064 152.938 9.584ZM158.378 10.176C158.506 10.0267 158.607 9.87733 158.682 9.728C158.757 9.568 158.794 9.43467 158.794 9.328V8.288C158.463 8.16 158.117 8.064 157.754 8C157.391 7.92533 157.034 7.888 156.682 7.888C155.967 7.888 155.386 8.032 154.938 8.32C154.501 8.59733 154.282 8.98133 154.282 9.472C154.282 9.73867 154.351 10 154.49 10.256C154.639 10.5013 154.853 10.704 155.13 10.864C155.418 11.024 155.77 11.104 156.186 11.104C156.623 11.104 157.039 11.0187 157.434 10.848C157.829 10.6667 158.143 10.4427 158.378 10.176ZM162.597 12V3.664H164.005V10.112L168.677 3.648H169.957V12H168.549V5.68L163.941 12H162.597ZM166.293 2.704C165.525 2.704 164.944 2.52267 164.549 2.16C164.155 1.78667 163.957 1.328 163.957 0.783999H164.949C164.949 1.08267 165.051 1.33333 165.253 1.536C165.467 1.728 165.813 1.824 166.293 1.824C166.763 1.824 167.093 1.73333 167.285 1.552C167.477 1.36 167.595 1.104 167.637 0.783999H168.629C168.629 1.328 168.432 1.78667 168.037 2.16C167.643 2.52267 167.061 2.704 166.293 2.704ZM174.399 12V4.896H171.519V3.648H178.687V4.896H175.807V12H174.399ZM183.958 12.16C183.328 12.16 182.752 12.048 182.23 11.824C181.718 11.5893 181.27 11.2747 180.886 10.88C180.512 10.4747 180.219 10.0107 180.006 9.488C179.803 8.96533 179.702 8.41067 179.702 7.824C179.702 7.03467 179.883 6.31467 180.246 5.664C180.608 5.01333 181.11 4.49067 181.75 4.096C182.4 3.70133 183.142 3.504 183.974 3.504C184.816 3.504 185.547 3.70667 186.166 4.112C186.795 4.50667 187.28 5.02933 187.622 5.68C187.974 6.32 188.15 7.01333 188.15 7.76C188.15 7.86667 188.144 7.97333 188.134 8.08C188.134 8.176 188.128 8.25067 188.118 8.304H181.19C181.232 8.848 181.382 9.33333 181.638 9.76C181.904 10.176 182.246 10.5067 182.662 10.752C183.078 10.9867 183.526 11.104 184.006 11.104C184.518 11.104 184.998 10.976 185.446 10.72C185.904 10.464 186.219 10.128 186.39 9.712L187.606 10.048C187.424 10.4533 187.152 10.816 186.79 11.136C186.438 11.456 186.016 11.7067 185.526 11.888C185.046 12.0693 184.523 12.16 183.958 12.16ZM181.142 7.328H186.838C186.795 6.784 186.64 6.304 186.374 5.888C186.107 5.472 185.766 5.14667 185.35 4.912C184.934 4.67733 184.475 4.56 183.974 4.56C183.483 4.56 183.03 4.67733 182.614 4.912C182.198 5.14667 181.856 5.472 181.59 5.888C181.334 6.304 181.184 6.784 181.142 7.328ZM197.778 12.16C197.148 12.16 196.572 12.048 196.05 11.824C195.538 11.5893 195.09 11.2747 194.706 10.88C194.332 10.4747 194.039 10.0107 193.826 9.488C193.623 8.96533 193.522 8.41067 193.522 7.824C193.522 7.03467 193.703 6.31467 194.066 5.664C194.428 5.01333 194.93 4.49067 195.57 4.096C196.22 3.70133 196.962 3.504 197.794 3.504C198.636 3.504 199.367 3.70667 199.986 4.112C200.615 4.50667 201.1 5.02933 201.442 5.68C201.794 6.32 201.97 7.01333 201.97 7.76C201.97 7.86667 201.964 7.97333 201.954 8.08C201.954 8.176 201.948 8.25067 201.938 8.304H195.01C195.052 8.848 195.202 9.33333 195.458 9.76C195.724 10.176 196.066 10.5067 196.482 10.752C196.898 10.9867 197.346 11.104 197.826 11.104C198.338 11.104 198.818 10.976 199.266 10.72C199.724 10.464 200.039 10.128 200.21 9.712L201.426 10.048C201.244 10.4533 200.972 10.816 200.61 11.136C200.258 11.456 199.836 11.7067 199.346 11.888C198.866 12.0693 198.343 12.16 197.778 12.16ZM194.962 7.328H200.658C200.615 6.784 200.46 6.304 200.194 5.888C199.927 5.472 199.586 5.14667 199.17 4.912C198.754 4.67733 198.295 4.56 197.794 4.56C197.303 4.56 196.85 4.67733 196.434 4.912C196.018 5.14667 195.676 5.472 195.41 5.888C195.154 6.304 195.004 6.784 194.962 7.328ZM203.679 12V3.648H208.831V4.896H205.087V12H203.679ZM214.081 12.16C213.452 12.16 212.881 12.048 212.369 11.824C211.857 11.5893 211.414 11.2747 211.041 10.88C210.668 10.4747 210.38 10.0107 210.177 9.488C209.974 8.96533 209.873 8.416 209.873 7.84C209.873 7.25333 209.974 6.69867 210.177 6.176C210.38 5.65333 210.668 5.19467 211.041 4.8C211.414 4.39467 211.857 4.08 212.369 3.856C212.892 3.62133 213.462 3.504 214.081 3.504C214.71 3.504 215.281 3.62133 215.793 3.856C216.305 4.08 216.748 4.39467 217.121 4.8C217.505 5.19467 217.798 5.65333 218.001 6.176C218.204 6.69867 218.305 7.25333 218.305 7.84C218.305 8.416 218.204 8.96533 218.001 9.488C217.798 10.0107 217.51 10.4747 217.137 10.88C216.764 11.2747 216.316 11.5893 215.793 11.824C215.281 12.048 214.71 12.16 214.081 12.16ZM211.313 7.856C211.313 8.432 211.436 8.95467 211.681 9.424C211.937 9.89333 212.273 10.2667 212.689 10.544C213.105 10.8107 213.569 10.944 214.081 10.944C214.593 10.944 215.057 10.8053 215.473 10.528C215.9 10.2507 216.236 9.87733 216.481 9.408C216.737 8.928 216.865 8.4 216.865 7.824C216.865 7.248 216.737 6.72533 216.481 6.256C216.236 5.78667 215.9 5.41333 215.473 5.136C215.057 4.85867 214.593 4.72 214.081 4.72C213.569 4.72 213.105 4.864 212.689 5.152C212.273 5.42933 211.937 5.80267 211.681 6.272C211.436 6.74133 211.313 7.26933 211.313 7.856Z" fill="#15144E"/>
</svg>
