<svg width="85" height="24" viewBox="0 0 85 24" fill="none" xmlns="http://www.w3.org/2000/svg">
<path d="M0.04 18V0.959999H13.192V18H11.032V2.88H2.2V18H0.04ZM16.1866 14.376C16.1866 13.576 16.4106 12.888 16.8586 12.312C17.3226 11.72 17.9546 11.264 18.7546 10.944C19.5546 10.624 20.4826 10.464 21.5386 10.464C22.0986 10.464 22.6906 10.512 23.3146 10.608C23.9386 10.688 24.4906 10.816 24.9706 10.992V10.08C24.9706 9.12 24.6826 8.368 24.1066 7.824C23.5306 7.264 22.7146 6.984 21.6586 6.984C20.9706 6.984 20.3066 7.112 19.6666 7.368C19.0426 7.608 18.3786 7.96 17.6746 8.424L16.9066 6.936C17.7226 6.376 18.5386 5.96 19.3546 5.688C20.1706 5.4 21.0186 5.256 21.8986 5.256C23.4986 5.256 24.7626 5.704 25.6906 6.6C26.6186 7.48 27.0826 8.712 27.0826 10.296V15.6C27.0826 15.856 27.1306 16.048 27.2266 16.176C27.3386 16.288 27.5146 16.352 27.7546 16.368V18C27.5466 18.032 27.3626 18.056 27.2026 18.072C27.0586 18.088 26.9386 18.096 26.8426 18.096C26.3466 18.096 25.9706 17.96 25.7146 17.688C25.4746 17.416 25.3386 17.128 25.3066 16.824L25.2586 16.032C24.7146 16.736 24.0026 17.28 23.1226 17.664C22.2426 18.048 21.3706 18.24 20.5066 18.24C19.6746 18.24 18.9306 18.072 18.2746 17.736C17.6186 17.384 17.1066 16.92 16.7386 16.344C16.3706 15.752 16.1866 15.096 16.1866 14.376ZM24.3466 15.264C24.5386 15.04 24.6906 14.816 24.8026 14.592C24.9146 14.352 24.9706 14.152 24.9706 13.992V12.432C24.4746 12.24 23.9546 12.096 23.4106 12C22.8666 11.888 22.3306 11.832 21.8026 11.832C20.7306 11.832 19.8586 12.048 19.1866 12.48C18.5306 12.896 18.2026 13.472 18.2026 14.208C18.2026 14.608 18.3066 15 18.5146 15.384C18.7386 15.752 19.0586 16.056 19.4746 16.296C19.9066 16.536 20.4346 16.656 21.0586 16.656C21.7146 16.656 22.3386 16.528 22.9306 16.272C23.5226 16 23.9946 15.664 24.3466 15.264ZM37.4436 18.24C36.4196 18.24 35.5076 17.984 34.7076 17.472C33.9076 16.96 33.2756 16.312 32.8116 15.528V23.112H30.6996V5.472H32.5716V7.824C33.0676 7.056 33.7156 6.44 34.5156 5.976C35.3156 5.496 36.1876 5.256 37.1316 5.256C37.9956 5.256 38.7876 5.432 39.5076 5.784C40.2276 6.136 40.8516 6.616 41.3796 7.224C41.9076 7.832 42.3156 8.528 42.6036 9.312C42.9076 10.08 43.0596 10.888 43.0596 11.736C43.0596 12.92 42.8196 14.008 42.3396 15C41.8756 15.992 41.2196 16.784 40.3716 17.376C39.5236 17.952 38.5476 18.24 37.4436 18.24ZM36.7956 16.416C37.4196 16.416 37.9796 16.288 38.4756 16.032C38.9876 15.76 39.4196 15.408 39.7716 14.976C40.1396 14.528 40.4196 14.024 40.6116 13.464C40.8036 12.904 40.8996 12.328 40.8996 11.736C40.8996 11.112 40.7876 10.52 40.5636 9.96C40.3556 9.4 40.0516 8.904 39.6516 8.472C39.2676 8.04 38.8116 7.704 38.2836 7.464C37.7716 7.208 37.2116 7.08 36.6036 7.08C36.2196 7.08 35.8196 7.152 35.4036 7.296C35.0036 7.44 34.6196 7.648 34.2516 7.92C33.8836 8.176 33.5716 8.472 33.3156 8.808C33.0596 9.144 32.8916 9.504 32.8116 9.888V13.464C33.0516 14.008 33.3716 14.504 33.7716 14.952C34.1716 15.4 34.6356 15.76 35.1636 16.032C35.6916 16.288 36.2356 16.416 36.7956 16.416ZM51.3648 18.24C50.4208 18.24 49.5648 18.072 48.7968 17.736C48.0288 17.384 47.3648 16.912 46.8048 16.32C46.2448 15.712 45.8128 15.016 45.5088 14.232C45.2048 13.448 45.0528 12.624 45.0528 11.76C45.0528 10.88 45.2048 10.048 45.5088 9.264C45.8128 8.48 46.2448 7.792 46.8048 7.2C47.3648 6.592 48.0288 6.12 48.7968 5.784C49.5808 5.432 50.4368 5.256 51.3648 5.256C52.3088 5.256 53.1648 5.432 53.9328 5.784C54.7008 6.12 55.3648 6.592 55.9248 7.2C56.5008 7.792 56.9408 8.48 57.2448 9.264C57.5488 10.048 57.7008 10.88 57.7008 11.76C57.7008 12.624 57.5488 13.448 57.2448 14.232C56.9408 15.016 56.5088 15.712 55.9488 16.32C55.3888 16.912 54.7168 17.384 53.9328 17.736C53.1648 18.072 52.3088 18.24 51.3648 18.24ZM47.2128 11.784C47.2128 12.648 47.3968 13.432 47.7648 14.136C48.1488 14.84 48.6528 15.4 49.2768 15.816C49.9008 16.216 50.5968 16.416 51.3648 16.416C52.1328 16.416 52.8288 16.208 53.4528 15.792C54.0928 15.376 54.5968 14.816 54.9648 14.112C55.3488 13.392 55.5408 12.6 55.5408 11.736C55.5408 10.872 55.3488 10.088 54.9648 9.384C54.5968 8.68 54.0928 8.12 53.4528 7.704C52.8288 7.288 52.1328 7.08 51.3648 7.08C50.5968 7.08 49.9008 7.296 49.2768 7.728C48.6528 8.144 48.1488 8.704 47.7648 9.408C47.3968 10.112 47.2128 10.904 47.2128 11.784ZM59.3959 18.096V16.2C59.8119 16.2 60.1799 16.096 60.4999 15.888C60.8359 15.664 61.1319 15.296 61.3879 14.784C61.6439 14.256 61.8439 13.536 61.9879 12.624C62.1479 11.696 62.2519 10.52 62.2999 9.096L62.4439 5.472H70.9639V18H68.8519V7.344H64.3159L64.2679 9.288C64.2039 11 64.0599 12.424 63.8359 13.56C63.6119 14.696 63.2999 15.592 62.8999 16.248C62.4999 16.904 62.0039 17.376 61.4119 17.664C60.8359 17.952 60.1639 18.096 59.3959 18.096ZM74.5909 18V5.472H76.7029V9.744H79.8229C81.2949 9.744 82.4069 10.12 83.1589 10.872C83.9269 11.608 84.3109 12.576 84.3109 13.776C84.3109 14.576 84.1429 15.296 83.8069 15.936C83.4869 16.576 83.0069 17.08 82.3669 17.448C81.7269 17.816 80.9269 18 79.9669 18H74.5909ZM76.7029 16.344H79.6789C80.2709 16.344 80.7429 16.232 81.0949 16.008C81.4629 15.768 81.7349 15.456 81.9109 15.072C82.0869 14.688 82.1749 14.272 82.1749 13.824C82.1749 13.392 82.0949 12.992 81.9349 12.624C81.7749 12.256 81.5109 11.96 81.1429 11.736C80.7749 11.512 80.2709 11.4 79.6309 11.4H76.7029V16.344Z" fill="#15144E" fill-opacity="0.6"/>
</svg>
